<svg width="132" height="32" viewBox="0 0 132 32" fill="none" xmlns="http://www.w3.org/2000/svg">
<g clip-path="url(#clip0_2588_33951)">
<path fill-rule="evenodd" clip-rule="evenodd" d="M8.2089 0.333655H22.9493C23.8911 0.327363 24.8249 0.508514 25.6973 0.866762C26.5698 1.22501 27.3639 1.75333 28.0343 2.42158C28.7046 3.08982 29.2381 3.88489 29.6042 4.76139C29.9703 5.63789 30.162 6.57866 30.1682 7.52997V22.2067C30.162 23.158 29.9703 24.0988 29.6042 24.9753C29.2381 25.8518 28.7046 26.6469 28.0343 27.3151C27.3639 27.9834 26.5698 28.5117 25.6973 28.8699C24.8249 29.2282 23.8911 29.4093 22.9493 29.403H8.2089C6.30848 29.4158 4.48077 28.666 3.12722 27.3185C1.77368 25.971 1.00498 24.1359 0.98999 22.2163V7.52997C0.996178 6.57866 1.18781 5.63789 1.55395 4.76139C1.92009 3.88489 2.45356 3.08982 3.1239 2.42158C3.79425 1.75333 4.58832 1.22501 5.46081 0.866762C6.3333 0.508514 7.26711 0.327363 8.2089 0.333655ZM19.2075 23.6105C17.9827 24.0783 16.6828 24.3131 15.3735 24.303L5.67497 24.2337C5.57098 24.2337 5.46802 24.213 5.37194 24.1728C5.27587 24.1326 5.18858 24.0737 5.11505 23.9995C5.04152 23.9252 4.98319 23.837 4.9434 23.74C4.9036 23.6429 4.88312 23.5389 4.88312 23.4339V21.7458C4.88312 21.6408 4.9036 21.5368 4.9434 21.4397C4.98319 21.3427 5.04152 21.2545 5.11505 21.1802C5.18858 21.106 5.27587 21.047 5.37194 21.0068C5.46802 20.9667 5.57098 20.946 5.67497 20.946H7.73144C6.58375 19.5957 5.83953 17.9438 5.58551 16.1828C5.33148 14.4217 5.57811 12.624 6.29664 10.9991C6.78744 9.86213 7.50616 8.84023 8.40747 7.99784C9.32135 7.1541 10.3837 6.49083 11.5394 6.04237C12.7615 5.56233 14.0622 5.31932 15.3735 5.32609H25.6203C25.8303 5.32609 26.0318 5.41036 26.1803 5.56036C26.3288 5.71036 26.4122 5.91382 26.4122 6.12595V7.82594C26.4116 8.03766 26.3279 8.2405 26.1794 8.38999C26.031 8.53947 25.8299 8.6234 25.6203 8.6234H22.9753C23.5983 9.32912 24.108 10.1291 24.4857 10.9943C24.9954 12.2055 25.2582 13.508 25.2582 14.8241C25.2582 16.1401 24.9954 17.4427 24.4857 18.6538C23.9872 19.7906 23.2631 20.8121 22.3583 21.6551C21.4417 22.5047 20.372 23.1686 19.2075 23.6105ZM17.4081 20.0528C18.718 19.5029 19.758 18.4501 20.2995 17.1258V17.121C20.8637 15.6394 20.8637 13.9992 20.2995 12.5176C20.0398 11.8551 19.6514 11.2518 19.1572 10.7432C18.6631 10.2346 18.0732 9.83105 17.4223 9.55627C16.7714 9.28149 16.0727 9.14105 15.3672 9.14322C14.6618 9.14539 13.9639 9.29013 13.3146 9.56891C12.6801 9.83411 12.1058 10.2273 11.6269 10.7245C11.1338 11.2414 10.7452 11.8505 10.4829 12.5176C9.92199 13.9998 9.92199 15.6388 10.4829 17.121C10.7476 17.7819 11.1361 18.385 11.6269 18.8974C12.106 19.3955 12.6801 19.7903 13.3146 20.0578C14.6258 20.6044 16.0983 20.6026 17.4081 20.0528Z" fill="#101498"/>
<path d="M39.1955 14.4754C39.1824 13.1009 39.4587 11.7393 40.0062 10.4809C40.5193 9.29269 41.2702 8.22453 42.2116 7.34353C43.1643 6.46299 44.2714 5.76984 45.476 5.29972C48.0579 4.3096 50.9095 4.3096 53.4915 5.29972C54.7029 5.77166 55.8182 6.46444 56.7818 7.34353C57.7326 8.22044 58.4903 9.2893 59.0061 10.4809C59.5411 11.7458 59.8169 13.107 59.8169 14.4826C59.8169 15.8581 59.5411 17.2193 59.0061 18.4842C58.485 19.6734 57.728 20.742 56.7818 21.6239C55.8275 22.513 54.7128 23.2085 53.4985 23.6725C50.9105 24.6421 48.064 24.6421 45.476 23.6725C44.2642 23.2139 43.1529 22.5205 42.2045 21.6311C41.2375 20.7168 40.4698 19.6088 39.9505 18.378C39.4312 17.1471 39.1716 15.8204 39.1884 14.4826L39.1955 14.4754ZM43.9395 14.4754C43.9271 15.3016 44.0774 16.1222 44.3815 16.8893C44.6534 17.5789 45.0547 18.2089 45.5634 18.7445C46.0644 19.2644 46.6653 19.6756 47.3292 19.9526C48.0067 20.2413 48.7343 20.3909 49.4697 20.3929C50.2051 20.3949 50.9334 20.249 51.6125 19.964C52.2915 19.6789 52.9077 19.2603 53.425 18.7324C53.9424 18.2045 54.3507 17.578 54.6261 16.8893C55.2153 15.3408 55.2153 13.6267 54.6261 12.0782C54.3489 11.3906 53.9399 10.7652 53.4226 10.2378C52.9053 9.71035 52.29 9.29139 51.6119 9.00495C50.9338 8.71851 50.2064 8.57025 49.4714 8.56868C48.7365 8.5671 48.0084 8.71226 47.3292 8.99578C46.6653 9.27282 46.0644 9.68394 45.5634 10.2039C45.0513 10.7441 44.6497 11.3811 44.3815 12.0782C44.0806 12.8404 43.9304 13.6548 43.9395 14.4754Z" fill="#101498"/>
<path d="M62.3293 6.78727C62.3293 5.74626 62.832 5.22655 63.8374 5.22814H65.2699C66.3005 5.22814 66.8158 5.74786 66.8158 6.78727V8.57082C66.8158 8.769 66.8158 8.9409 66.7968 9.08893C66.7857 9.22602 66.7668 9.36234 66.7401 9.49722C66.7166 9.61996 66.7047 9.74468 66.7047 9.86969H66.7779C66.9626 9.26899 67.2224 8.69452 67.5509 8.16016C67.8922 7.59412 68.3063 7.07627 68.7824 6.62013C69.2502 6.16929 69.7835 5.79327 70.3637 5.5051C70.9413 5.21989 71.5764 5.07362 72.2193 5.07772C72.7346 5.07772 73.0962 5.20825 73.3042 5.4693C73.5365 5.8123 73.6465 6.2248 73.6163 6.63922V8.08613C73.6163 9.12713 73.0891 9.64765 72.0349 9.64765C71.2474 9.62867 70.4707 9.83475 69.7941 10.2422C69.158 10.6356 68.6176 11.1685 68.2127 11.8013C67.7795 12.4739 67.46 13.2146 67.2672 13.9931C67.0613 14.8157 66.9589 15.6612 66.9623 16.5097V22.6005C66.9623 23.6415 66.4596 24.162 65.4542 24.162H63.8374C62.8305 24.162 62.3278 23.6415 62.3293 22.6005V6.78727Z" fill="#101498"/>
<path d="M76.051 6.76806C76.051 5.72706 76.5537 5.20654 77.5591 5.20654H79.1759C80.1813 5.20654 80.684 5.72706 80.684 6.76806V22.5885C80.684 23.6295 80.1813 24.1492 79.1759 24.1476H77.5591C76.5521 24.1476 76.0495 23.6279 76.051 22.5885V6.76806Z" fill="#101498"/>
<path d="M85.9883 28.0848C86.1147 27.6951 86.3847 27.3694 86.7423 27.1752C87.1331 27.0408 87.5597 27.0613 87.936 27.2325C88.4523 27.4263 88.9805 27.5859 89.5174 27.71C90.2415 27.8698 90.9816 27.9443 91.7228 27.932C92.4105 27.9352 93.0962 27.8551 93.7651 27.6933C94.3771 27.5487 94.9526 27.2771 95.4551 26.8958C95.9398 26.5141 96.3299 26.0236 96.5945 25.4632C96.8944 24.7926 97.0391 24.0618 97.0176 23.3263V21.5809C97.0174 21.481 97.0301 21.3815 97.0554 21.2849C97.0567 21.1726 97.0686 21.0606 97.0909 20.9506H97.0176C96.5342 21.8093 95.8376 22.5261 94.9966 23.0302C94.1614 23.5237 93.1198 23.7712 91.8717 23.7728C90.617 23.7987 89.3727 23.5384 88.2315 23.0111C87.2025 22.5238 86.2922 21.8138 85.5652 20.9315C84.8281 20.0275 84.2725 18.987 83.9295 17.8682C83.5551 16.6664 83.3685 15.4129 83.3764 14.153C83.3681 12.9196 83.5482 11.6922 83.9106 10.5143C84.2411 9.41995 84.7852 8.40354 85.5108 7.52497C86.2336 6.65991 87.1379 5.96827 88.1582 5.50026C89.3145 4.98282 90.5695 4.72928 91.8339 4.75771C92.7623 4.72682 93.6874 4.88431 94.5546 5.2209C95.1605 5.46916 95.73 5.80016 96.247 6.20461C96.7091 6.61541 97.0949 7.10618 97.3863 7.65389H97.4596C97.4459 7.63891 97.4354 7.62118 97.4289 7.60185C97.4224 7.58252 97.4199 7.56202 97.4218 7.54168V6.48157C97.4209 6.31396 97.4549 6.14803 97.5217 5.99459C97.5885 5.84115 97.6866 5.70363 97.8094 5.59099C98.1204 5.32374 98.5226 5.19004 98.9299 5.21852H100.18C101.186 5.21852 101.688 5.73902 101.688 6.78003V23.0159C101.688 24.6506 101.4 26.0315 100.823 27.1584C100.286 28.2361 99.5199 29.1809 98.58 29.9257C97.6501 30.648 96.5882 31.1778 95.4551 31.4848C94.3231 31.7996 93.1545 31.9602 91.9804 31.9624C90.956 31.9656 89.9338 31.8665 88.9288 31.6663C88.0984 31.508 87.2854 31.2681 86.5013 30.95C85.5699 30.5537 85.3005 29.8851 85.6928 28.9444L85.9883 28.0848ZM92.7888 19.8022C93.3323 19.8015 93.8724 19.7145 94.3891 19.5443C94.9234 19.3653 95.4041 19.0523 95.7861 18.6346C96.2261 18.1403 96.558 17.5578 96.7599 16.9251C97.0281 16.0669 97.1527 15.1696 97.1287 14.27C97.1542 13.3578 97.0296 12.4477 96.7599 11.5768C96.5596 10.9448 96.2202 10.3669 95.7672 9.88633C95.3656 9.47465 94.8657 9.17449 94.3158 9.01484C93.7477 8.85179 93.1595 8.77139 92.569 8.77608C91.0987 8.77608 89.9838 9.25361 89.2243 10.2087C88.4647 11.1637 88.0842 12.4196 88.0826 13.9763C88.0826 15.6859 88.4876 17.085 89.2976 18.1738C90.1075 19.2625 91.2713 19.8053 92.7888 19.8022Z" fill="#101498"/>
<path d="M105.279 6.78032C105.279 5.74091 105.782 5.22119 106.787 5.22119H108.404C109.409 5.22119 109.912 5.74091 109.912 6.78032V22.6031C109.912 23.6426 109.409 24.1623 108.404 24.1623H106.787C105.783 24.1623 105.28 23.6426 105.279 22.6031V6.78032Z" fill="#101498"/>
<path d="M113.462 6.5507C113.462 5.50969 113.965 4.98999 114.97 4.99158H116.405C117.411 4.99158 117.913 5.51128 117.913 6.5507V7.70154C117.914 7.81324 117.907 7.92487 117.894 8.03581C117.883 8.12212 117.877 8.20901 117.875 8.29605C117.853 8.38107 117.84 8.46839 117.838 8.55631H117.913C118.15 8.09552 118.433 7.66031 118.757 7.25744C119.15 6.76321 119.608 6.32542 120.119 5.95618C120.707 5.53396 121.351 5.19645 122.031 4.95337C122.846 4.66795 123.705 4.52975 124.567 4.5451C126.65 4.5451 128.263 5.11494 129.403 6.25463C130.544 7.39433 131.114 9.22484 131.112 11.7462V22.3664C131.112 23.4074 130.598 23.9279 129.569 23.9279H127.988C126.957 23.9279 126.442 23.4074 126.442 22.3664V12.7156C126.442 11.5536 126.246 10.6192 125.855 9.91248C125.461 9.19619 124.674 8.85237 123.492 8.85237C122.718 8.83749 121.951 9.00079 121.249 9.3299C120.594 9.64544 120.017 10.1018 119.556 10.667C119.079 11.2577 118.713 11.9307 118.473 12.6535C118.214 13.422 118.083 14.229 118.086 15.0411V22.3568C118.086 23.3978 117.584 23.9183 116.58 23.9183H114.97C113.967 23.9183 113.464 23.3978 113.462 22.3568V6.5507Z" fill="#101498"/>
</g>
<defs>
<clipPath id="clip0_2588_33951">
<rect width="132" height="32" fill="white"/>
</clipPath>
</defs>
</svg>
